# xmcd CD database file
#
# Track frame offsets:
#	150
#	21100
#	37892
#	55825
#	70900
#	90267
#	107580
#	125722
#	140192
#	154142
#	171112
#	191837
#	209005
#	226180
#
# Disc length: 3241 seconds
#
# Revision: 1
# Processed by: cddbd v1.5.2PL0 Copyright (c) Steve Scherf et al.
# Submitted via: CDex 1.50beta10
#
DISCID=c20ca70e
DTITLE=台語-7 - 精選版
DYEAR=1900
DGENRE=Blues
TTITLE0=離鄉之歌
TTITLE1=感激你的愛
TTITLE2=阿郎阿郎
TTITLE3=何日君再來
TTITLE4=紡見的孩子
TTITLE5=擱等三年
TTITLE6=挽仙桃
TTITLE7=想你的時拵
TTITLE8=風飛沙
TTITLE9=覓生氣
TTITLE10=毛毛雨
TTITLE11=情網
TTITLE12=真情免咒詛
TTITLE13=煩惱無路用
EXTD=
EXTT0=
EXTT1=
EXTT2=
EXTT3=
EXTT4=
EXTT5=
EXTT6=
EXTT7=
EXTT8=
EXTT9=
EXTT10=
EXTT11=
EXTT12=
EXTT13=
PLAYORDER=
